<?xml version="1.0" encoding="UTF-8"?>
<svg xmlns="http://www.w3.org/2000/svg" width="272" height="273" viewBox="0 0 272 273" fill="none">
    <!-- Основной путь с изображением, внутри которого лежит текст, делаю его белым -->
    <path fill-rule="evenodd" clip-rule="evenodd" d="M166.654 120.168C170.62 121.287 174.713 121.846 178.932 121.846C183.813 121.846 187.957 121.109 191.363 119.634C194.77 118.16 197.312 116.177 198.99 113.686C200.718 111.144 201.582 108.347 201.582 105.297C201.582 101.738 200.642 98.9162 198.761 96.8317C196.93 94.7472 194.719 93.222 192.126 92.256C189.533 91.29 186.203 90.324 182.136 89.358C178.221 88.4937 175.297 87.6294 173.365 86.7651C171.484 85.8499 170.544 84.4772 170.544 82.6469C170.544 80.8166 171.357 79.3422 172.984 78.2237C174.662 77.1052 177.229 76.5459 180.687 76.5459C185.618 76.5459 190.55 77.9441 195.481 80.7404L199.295 71.3601C196.854 69.8348 194.007 68.6655 190.753 67.852C187.499 67.0385 184.169 66.6318 180.763 66.6318C175.882 66.6318 171.738 67.369 168.332 68.8434C164.976 70.3178 162.46 72.3261 160.782 74.8681C159.104 77.3594 158.265 80.1557 158.265 83.257C158.265 86.8159 159.181 89.6631 161.011 91.7984C162.892 93.9338 165.129 95.4844 167.722 96.4504C170.315 97.4164 173.645 98.3824 177.712 99.3484C180.356 99.9585 182.441 100.518 183.966 101.026C185.542 101.535 186.813 102.221 187.779 103.085C188.796 103.899 189.304 104.941 189.304 106.212C189.304 107.941 188.465 109.339 186.788 110.406C185.11 111.423 182.517 111.932 179.009 111.932C175.857 111.932 172.704 111.423 169.552 110.406C166.4 109.39 163.68 108.042 161.392 106.365L157.198 115.669C159.587 117.499 162.739 118.999 166.654 120.168ZM111.575 120.93V111.016H82.5189V98.6618H107.304V89.0528H82.5189V77.4609H110.583V67.5468H70.2406V120.93H111.575ZM107.925 205.909L107.849 173.878L92.1389 200.265H86.5717L70.9379 174.565V205.909H59.346V152.525H69.5652L89.5459 185.699L109.222 152.525H119.365L119.517 205.909H107.925ZM193.147 154.889C189.689 153.313 185.597 152.525 180.868 152.525H157.761V205.909H170.115V191.19H180.868C185.597 191.19 189.689 190.427 193.147 188.902C196.655 187.326 199.349 185.089 201.231 182.191C203.112 179.242 204.052 175.81 204.052 171.896C204.052 167.93 203.112 164.498 201.231 161.6C199.349 158.702 196.655 156.465 193.147 154.889ZM188.647 178.759C186.715 180.335 183.894 181.123 180.182 181.123H170.115V162.592H180.182C183.894 162.592 186.715 163.405 188.647 165.032C190.579 166.608 191.545 168.896 191.545 171.896C191.545 174.844 190.579 177.132 188.647 178.759Z" fill="#FFFFFF"/>
    <!-- Остальные элементы — оставляем без изменений, если там другие цвета, их можно тоже поправить -->
    <path fill-rule="evenodd" clip-rule="evenodd" d="M25.4208 247.308V136.025H0V272.729H136.025V247.308H25.4208Z" fill="#D1D6DA"/>
    <path fill-rule="evenodd" clip-rule="evenodd" d="M136.023 25.4208H246.581V82.7495L246.892 136.025H272.001V0H136.023V25.4208Z" fill="#D1D6DA"/>
    <path fill-rule="evenodd" clip-rule="evenodd" d="M25.4286 136.025V25.4208H136.033V0H0.00782104V136.025H25.4286Z" fill="#FFD800"/>
    <path fill-rule="evenodd" clip-rule="evenodd" d="M136.023 272.729H224.747L272.001 212.243V136.025H246.849L247.299 202.672L212.487 247.308H136.023V272.729Z" fill="#D1D6DA"/>
</svg>
